<svg width="24" height="24" viewBox="0 0 24 24" fill="none" xmlns="http://www.w3.org/2000/svg">
<path fill-rule="evenodd" clip-rule="evenodd" d="M21.0728 13.8804C21.282 14.0621 21.3334 14.366 21.1962 14.606L18.878 18.6628C18.7348 18.9135 18.4289 19.0205 18.1598 18.9135L17.1284 18.5015C16.2375 18.2994 15.349 18.8149 15.0974 19.69L14.8874 20.8021C14.8352 21.0755 14.5963 21.273 14.3181 21.273H9.68181C9.4037 21.273 9.16489 21.0754 9.1125 20.8021L8.89013 19.6385C8.64772 18.8037 7.73701 18.2847 6.83574 18.5099L5.65258 18.8042C5.39967 18.8658 5.13538 18.7532 5.0077 18.5257L2.80183 14.6026C2.66678 14.3625 2.71917 14.061 2.92719 13.8804L3.77554 13.1447C4.38509 12.5176 4.38509 11.483 3.74048 10.8225L2.92717 10.1202C2.71799 9.93843 2.6665 9.63455 2.80375 9.39458L5.12192 5.33774C5.26541 5.08703 5.57211 4.98121 5.84015 5.08703L6.87157 5.49904C7.76158 5.70006 8.65094 5.18559 8.90255 4.31057L9.1125 3.19843C9.16476 2.92508 9.40368 2.72754 9.68181 2.72754H14.3181C14.5964 2.72754 14.8352 2.92509 14.8876 3.19843L15.1101 4.36207C15.3494 5.18546 16.2392 5.70447 17.1285 5.49904L18.1599 5.08703C18.4288 4.98004 18.735 5.08703 18.8782 5.33774L21.1963 9.39458C21.3336 9.63454 21.2821 9.93855 21.0729 10.1202L20.2246 10.8559C19.615 11.483 19.615 12.5176 20.2596 13.1781L21.0728 13.8804ZM19.7756 10.2064L19.775 10.2055L19.7756 10.2064Z" fill="#3F3F3F"/>
<path fill-rule="evenodd" clip-rule="evenodd" d="M12.0001 15.818C14.1088 15.818 15.8182 14.1085 15.8182 11.9998C15.8182 9.8911 14.1088 8.18164 12.0001 8.18164C9.89134 8.18164 8.18188 9.8911 8.18188 11.9998C8.18188 14.1085 9.89134 15.818 12.0001 15.818Z" fill="white"/>
</svg>
