<svg width="16" height="16" viewBox="0 0 16 16" fill="none" xmlns="http://www.w3.org/2000/svg">
<circle cx="8" cy="8" r="7" fill="#FFDA57"/>
<path d="M6.59769 6.03941C6.57123 6.16924 6.5082 6.28896 6.41591 6.38466C6.32361 6.48035 6.20583 6.5481 6.07627 6.58003C5.94672 6.61197 5.8107 6.60677 5.684 6.56506C5.5573 6.52335 5.44512 6.44684 5.3605 6.3444C5.27588 6.24195 5.22232 6.11779 5.20599 5.98634C5.18965 5.85488 5.21124 5.72152 5.26825 5.60176C5.32525 5.48199 5.41531 5.38072 5.52801 5.30973C5.6407 5.23873 5.77139 5.20092 5.90488 5.20068C6.10791 5.22298 6.29407 5.32322 6.42355 5.47997C6.55302 5.63672 6.61554 5.83752 6.59769 6.03941Z" fill="#472E15"/>
<path d="M10.7969 6.03941C10.7705 6.16924 10.7074 6.28896 10.6151 6.38466C10.5228 6.48035 10.405 6.5481 10.2755 6.58003C10.1459 6.61197 10.0099 6.60677 9.88321 6.56506C9.75651 6.52335 9.64433 6.44684 9.55972 6.3444C9.4751 6.24195 9.42154 6.11779 9.4052 5.98634C9.38887 5.85488 9.41046 5.72152 9.46747 5.60176C9.52447 5.48199 9.61453 5.38072 9.72723 5.30973C9.83992 5.23873 9.97061 5.20092 10.1041 5.20068C10.3071 5.22298 10.4933 5.32322 10.6228 5.47997C10.7522 5.63672 10.8148 5.83752 10.7969 6.03941Z" fill="#472E15"/>
<path d="M11.3946 9.50441C11.3621 9.4716 11.3234 9.44557 11.2807 9.4278C11.2381 9.41003 11.1923 9.40088 11.1461 9.40088C11.0999 9.40088 11.0542 9.41003 11.0115 9.4278C10.9689 9.44557 10.9301 9.4716 10.8976 9.50441C10.2367 10.1487 9.39802 10.5802 8.48961 10.7434C8.32737 10.7681 8.16369 10.7821 7.99961 10.7854C7.83321 10.7821 7.6672 10.7681 7.50261 10.7434C6.5942 10.5802 5.7555 10.1487 5.09461 9.50441C5.06207 9.4716 5.02336 9.44557 4.98071 9.4278C4.93806 9.41003 4.89231 9.40088 4.84611 9.40088C4.7999 9.40088 4.75416 9.41003 4.71151 9.4278C4.66886 9.44557 4.63015 9.4716 4.59761 9.50441C4.53348 9.56983 4.49756 9.65779 4.49756 9.74941C4.49756 9.84102 4.53348 9.92898 4.59761 9.99441C5.36555 10.7445 6.34097 11.2469 7.39761 11.4364C7.60189 11.464 7.80753 11.4803 8.01361 11.4854C8.215 11.4798 8.41596 11.4634 8.61561 11.4364C9.67225 11.2469 10.6477 10.7445 11.4156 9.99441C11.477 9.92627 11.5092 9.83675 11.5053 9.74512C11.5014 9.65348 11.4616 9.56704 11.3946 9.50441Z" fill="#472E15"/>
</svg>
