<svg width="16" height="16" viewBox="0 0 16 16" fill="none" xmlns="http://www.w3.org/2000/svg">
<circle cx="7.99997" cy="8.00021" r="6.85714" fill="#4ED4FF"/>
<path d="M7.2134 7.34814H4.1658C3.83395 7.34814 3.59822 7.68871 3.72918 8.00307L5.24863 11.7143C5.40578 12.1073 5.96472 12.1073 6.12187 11.7143L7.64132 8.00307C7.77228 7.68877 7.54526 7.34814 7.21342 7.34814H7.2134Z" fill="white"/>
<path d="M6.84663 5.70652C6.84663 6.33349 6.33837 6.84174 5.7114 6.84174C5.08443 6.84174 4.57617 6.33349 4.57617 5.70652C4.57617 5.07955 5.08443 4.57129 5.7114 4.57129C6.33837 4.57129 6.84663 5.07955 6.84663 5.70652Z" fill="white"/>
<path d="M11.9553 11.3478L10.4358 7.6365C10.2787 7.24356 9.71975 7.24356 9.5626 7.6365L8.04314 11.3478C7.91218 11.6621 8.14791 12.0027 8.47976 12.0027H11.5274C11.8505 11.994 12.0775 11.6534 11.9553 11.3478H11.9553Z" fill="white"/>
<path d="M11.1517 5.70652C11.1517 6.33349 10.6435 6.84174 10.0166 6.84174C9.3896 6.84174 8.88135 6.33349 8.88135 5.70652C8.88135 5.07955 9.3896 4.57129 10.0166 4.57129C10.6435 4.57129 11.1517 5.07955 11.1517 5.70652Z" fill="white"/>
</svg>
