<svg width="16" height="16" viewBox="0 0 16 16" fill="none" xmlns="http://www.w3.org/2000/svg">
<path d="M6.02288 2.16387C6.55987 3.43863 6.86825 4.98944 9.45222 5.54652C10.7734 5.72469 10.1753 6.4248 9.29005 6.76859C8.50582 7.07223 6.68482 8.24411 6.06275 10.2064C5.92717 10.7409 5.19611 10.8438 5.01268 10.3319C4.31086 8.37711 3.72867 7.10736 1.87045 6.45241C1.2856 6.2642 0.921401 5.38592 2.17617 5.1676C3.84564 4.87149 4.6857 3.18268 4.99407 2.40477C5.23067 1.81506 5.74906 1.46626 6.02288 2.16387Z" fill="#FFD600"/>
<path d="M11.727 8.27057C12.1029 9.1629 12.3188 10.2485 14.1275 10.6384C15.0524 10.7631 14.6337 11.2532 14.014 11.4939C13.4651 11.7064 12.1904 12.5267 11.7549 13.9004C11.66 14.2745 11.1483 14.3465 11.0199 13.9882C10.5286 12.6198 10.1211 11.731 8.8203 11.2725C8.41091 11.1408 8.15597 10.526 9.0343 10.3732C10.2029 10.1659 10.791 8.98373 11.0068 8.4392C11.1725 8.0264 11.5353 7.78224 11.727 8.27057Z" fill="#FFD600"/>
</svg>
