<svg width="10" height="15" viewBox="0 0 10 15" fill="none" xmlns="http://www.w3.org/2000/svg">
<rect y="1.44482" width="10" height="13.0003" rx="1" fill="#9A7255"/>
<rect x="0.713867" y="2.16699" width="8.57143" height="11.5558" rx="1" fill="white"/>
<path fill-rule="evenodd" clip-rule="evenodd" d="M6.07141 1.08336C6.07141 1.21009 6.04988 1.33174 6.01034 1.44477H7.35735C7.63349 1.44477 7.85735 1.66863 7.85735 1.94477V2.38924C7.85735 2.66539 7.63349 2.88924 7.35735 2.88924H2.64307C2.36692 2.88924 2.14307 2.66539 2.14307 2.38924V1.94477C2.14307 1.66863 2.36692 1.44477 2.64307 1.44477H3.98962C3.95007 1.33174 3.92855 1.21009 3.92855 1.08336C3.92855 0.485035 4.40824 0 4.99998 0C5.59171 0 6.07141 0.485035 6.07141 1.08336ZM5.00015 1.44381C5.1974 1.44381 5.3573 1.28213 5.3573 1.08269C5.3573 0.883249 5.1974 0.721571 5.00015 0.721571C4.80291 0.721571 4.64301 0.883249 4.64301 1.08269C4.64301 1.28213 4.80291 1.44381 5.00015 1.44381Z" fill="#D7D7D7"/>
<path d="M2.14307 2.16699H7.85735V2.38923C7.85735 2.66537 7.63349 2.88923 7.35735 2.88923H2.64307C2.36692 2.88923 2.14307 2.66537 2.14307 2.38923V2.16699Z" fill="#C1C1C1"/>
<rect x="2.14307" y="5.77734" width="5.71428" height="0.722237" rx="0.361118" fill="#B4B4B4"/>
<rect x="2.14307" y="7.22266" width="5" height="0.722237" rx="0.361118" fill="#B4B4B4"/>
<rect x="2.14307" y="8.66699" width="3.57143" height="0.722237" rx="0.361118" fill="#B4B4B4"/>
</svg>
