<svg width="16" height="16" viewBox="0 0 16 16" fill="none" xmlns="http://www.w3.org/2000/svg">
<g clip-path="url(#clip0_307_8226)">
<path d="M6.66675 5.7704V2.21484H4.88897V5.7704H6.66675Z" fill="#DDDDDD"/>
<path d="M11.1111 5.7704V2.21484H9.33331V5.7704H11.1111Z" fill="#DDDDDD"/>
<path d="M6.66675 1.968C6.66675 1.45819 6.26818 1.0459 5.77786 1.0459C5.28754 1.0459 4.88897 1.45819 4.88897 1.968V2.37923H6.66675V1.968Z" fill="#939393"/>
<path d="M11.1111 1.968C11.1111 1.45819 10.7125 1.0459 10.2222 1.0459C9.73188 1.0459 9.33331 1.45819 9.33331 1.968V2.37923H11.1111V1.968Z" fill="#939393"/>
<path d="M8.86663 13.4224H9.92068C11.5574 13.4224 12.8889 12.1832 12.8889 10.664V6.13695C12.8889 5.69247 12.5001 5.33301 12.0218 5.33301H10.6814H8.94718H7.05188L5.31867 5.33301H3.97824C3.49994 5.33301 3.11114 5.69247 3.11114 6.13695V10.6649C3.11114 12.1832 4.44262 13.4233 6.07937 13.4233H7.13342V16.8886H8.86763V13.4233L8.86663 13.4224Z" fill="#545454"/>
</g>
<defs>
<clipPath id="clip0_307_8226">
<rect width="16" height="16" fill="white"/>
</clipPath>
</defs>
</svg>
