<svg width="16" height="16" viewBox="0 0 16 16" fill="none" xmlns="http://www.w3.org/2000/svg">
<rect x="2.74976" y="2.5" width="10.5" height="7.21307" rx="1" fill="#BFB2F0"/>
<rect x="3.4707" y="10.6147" width="1.4" height="2.88523" rx="0.5" fill="#C79E62"/>
<rect x="10.8833" y="10.6147" width="1.4" height="2.88523" rx="0.5" fill="#C79E62"/>
<path fill-rule="evenodd" clip-rule="evenodd" d="M2 5.38477C1.44772 5.38477 1 5.83248 1 6.38477V7.16695C1 7.67686 1.38165 8.09764 1.87489 8.1592V10.8765C1.87489 10.9467 1.88212 11.0153 1.89589 11.0814C1.9902 11.5357 2.39273 11.8771 2.875 11.8771H13.125C13.6401 11.8771 14.0642 11.4877 14.119 10.9872L14.121 10.9667C14.1237 10.937 14.125 10.9069 14.125 10.8765V8.15921C14.6183 8.0977 15 7.6769 15 7.16695V6.38477C15 5.83248 14.5523 5.38477 14 5.38477H13.125H12.5C11.9478 5.38477 11.5 5.83248 11.5 6.38477V7.16695V9.09489H4.49988V7.18217C4.49996 7.17711 4.5 7.17203 4.5 7.16695V6.38477C4.5 5.83248 4.05228 5.38477 3.5 5.38477H3.49989H2.87489H2Z" fill="#CBC0F6"/>
</svg>
